<svg width="24" height="24" viewBox="0 0 24 24" fill="none" xmlns="http://www.w3.org/2000/svg">
<g clip-path="url(#clip0_102_24)">
<path d="M12.0094 2.25C10.081 2.25 8.19597 2.82183 6.59259 3.89317C4.98921 4.96452 3.73953 6.48726 3.00158 8.26884C2.26362 10.0504 2.07054 12.0108 2.44675 13.9021C2.82295 15.7934 3.75155 17.5307 5.11511 18.8943C6.47867 20.2579 8.21596 21.1865 10.1073 21.5627C11.9986 21.9389 13.959 21.7458 15.7406 21.0078C17.5221 20.2699 19.0449 19.0202 20.1162 17.4168C21.1876 15.8134 21.7594 13.9284 21.7594 12C21.7569 9.4149 20.7289 6.93639 18.901 5.10845C17.073 3.28051 14.5945 2.25248 12.0094 2.25V2.25ZM12.0094 20.25C10.3777 20.25 8.78265 19.7661 7.42595 18.8596C6.06924 17.9531 5.01182 16.6646 4.3874 15.1571C3.76297 13.6496 3.5996 11.9908 3.91792 10.3905C4.23625 8.79016 5.02199 7.32015 6.17577 6.16637C7.32956 5.01259 8.79957 4.22685 10.3999 3.90852C12.0003 3.59019 13.6591 3.75357 15.1665 4.37799C16.674 5.00242 17.9625 6.05984 18.869 7.41655C19.7755 8.77325 20.2594 10.3683 20.2594 12C20.2569 14.1873 19.3869 16.2843 17.8403 17.8309C16.2937 19.3775 14.1967 20.2475 12.0094 20.25V20.25ZM17.4657 10.5C17.4211 10.5884 17.3593 10.6669 17.2839 10.731C17.2085 10.7951 17.1211 10.8434 17.0267 10.8731C16.9323 10.9028 16.8329 10.9133 16.7344 10.904C16.6359 10.8946 16.5403 10.8657 16.4532 10.8188C15.0739 10.115 13.5473 9.74893 11.9989 9.75056C10.4505 9.75219 8.92465 10.1215 7.5469 10.8281C7.43963 10.8834 7.32072 10.9123 7.20003 10.9125C7.03275 10.9107 6.87086 10.853 6.74013 10.7487C6.60939 10.6443 6.5173 10.4992 6.4785 10.3365C6.4397 10.1737 6.45643 10.0027 6.52601 9.85058C6.5956 9.69845 6.71405 9.57395 6.86253 9.49688C8.45116 8.67871 10.212 8.25108 11.9989 8.24945C13.7858 8.24782 15.5474 8.67223 17.1375 9.4875C17.2258 9.53217 17.3044 9.59387 17.3687 9.66904C17.433 9.7442 17.4818 9.83135 17.5123 9.92546C17.5428 10.0196 17.5544 10.1188 17.5464 10.2174C17.5384 10.316 17.5109 10.412 17.4657 10.5V10.5ZM16.0782 13.1531C16.0335 13.2414 15.9718 13.32 15.8966 13.3843C15.8215 13.4486 15.7343 13.4974 15.6402 13.5279C15.5461 13.5584 15.4469 13.57 15.3483 13.562C15.2497 13.554 15.1536 13.5265 15.0657 13.4813C14.1155 12.9987 13.0646 12.748 11.9989 12.7496C10.9332 12.7513 9.88309 13.0052 8.9344 13.4906C8.83007 13.5448 8.71446 13.5737 8.5969 13.575C8.42539 13.5797 8.25745 13.5254 8.12109 13.4213C7.98474 13.3171 7.88823 13.1694 7.84764 13.0027C7.80706 12.836 7.82487 12.6604 7.8981 12.5052C7.97132 12.35 8.09554 12.2247 8.25003 12.15C9.41146 11.5582 10.6965 11.2496 12 11.2496C13.3036 11.2496 14.5886 11.5582 15.75 12.15C15.9259 12.2402 16.059 12.3962 16.1204 12.5841C16.1818 12.7719 16.1667 12.9764 16.0782 13.1531ZM14.6907 15.8156C14.5986 15.9921 14.4409 16.1254 14.2515 16.1868C14.0621 16.2481 13.8562 16.2327 13.6782 16.1437C13.1569 15.8831 12.5817 15.7481 11.9989 15.7498C11.4161 15.7514 10.8417 15.8895 10.3219 16.1531C10.2155 16.2002 10.1008 16.2257 9.9844 16.2281C9.81712 16.2263 9.65524 16.1687 9.5245 16.0643C9.39376 15.9599 9.30167 15.8148 9.26287 15.6521C9.22408 15.4894 9.2408 15.3183 9.31039 15.1662C9.37997 15.0141 9.49842 14.8896 9.6469 14.8125C10.3784 14.4396 11.1884 14.2467 12.0094 14.25C12.8231 14.2493 13.6257 14.4387 14.3532 14.8031C14.4422 14.847 14.5217 14.9081 14.587 14.9829C14.6523 15.0577 14.7021 15.1447 14.7335 15.2389C14.7649 15.333 14.7772 15.4325 14.7699 15.5315C14.7625 15.6305 14.7356 15.7271 14.6907 15.8156V15.8156Z" fill="#837E9F"/>
<path d="M12.0094 2.25C10.081 2.25 8.19597 2.82183 6.59259 3.89317C4.98921 4.96452 3.73953 6.48726 3.00158 8.26884C2.26362 10.0504 2.07054 12.0108 2.44675 13.9021C2.82295 15.7934 3.75155 17.5307 5.11511 18.8943C6.47867 20.2579 8.21596 21.1865 10.1073 21.5627C11.9986 21.9389 13.959 21.7458 15.7406 21.0078C17.5221 20.2699 19.0449 19.0202 20.1162 17.4168C21.1876 15.8134 21.7594 13.9284 21.7594 12C21.7569 9.4149 20.7289 6.93639 18.901 5.10845C17.073 3.28051 14.5945 2.25248 12.0094 2.25ZM12.0094 20.25C10.3777 20.25 8.78265 19.7661 7.42595 18.8596C6.06924 17.9531 5.01182 16.6646 4.3874 15.1571C3.76297 13.6496 3.5996 11.9908 3.91792 10.3905C4.23625 8.79016 5.02199 7.32015 6.17577 6.16637C7.32956 5.01259 8.79957 4.22685 10.3999 3.90852C12.0003 3.59019 13.6591 3.75357 15.1665 4.37799C16.674 5.00242 17.9625 6.05984 18.869 7.41655C19.7755 8.77325 20.2594 10.3683 20.2594 12C20.2569 14.1873 19.3869 16.2843 17.8403 17.8309C16.2937 19.3775 14.1967 20.2475 12.0094 20.25ZM17.4657 10.5C17.4211 10.5884 17.3593 10.6669 17.2839 10.731C17.2085 10.7951 17.1211 10.8434 17.0267 10.8731C16.9323 10.9028 16.8329 10.9133 16.7344 10.904C16.6359 10.8946 16.5403 10.8657 16.4532 10.8188C15.0739 10.115 13.5473 9.74893 11.9989 9.75056C10.4505 9.75219 8.92465 10.1215 7.5469 10.8281C7.43963 10.8834 7.32072 10.9123 7.20003 10.9125C7.03275 10.9107 6.87086 10.853 6.74013 10.7487C6.60939 10.6443 6.5173 10.4992 6.4785 10.3365C6.4397 10.1737 6.45643 10.0027 6.52601 9.85058C6.5956 9.69845 6.71405 9.57395 6.86253 9.49688C8.45116 8.67871 10.212 8.25108 11.9989 8.24945C13.7858 8.24782 15.5474 8.67223 17.1375 9.4875C17.2258 9.53217 17.3044 9.59387 17.3687 9.66904C17.433 9.7442 17.4818 9.83135 17.5123 9.92546C17.5428 10.0196 17.5544 10.1188 17.5464 10.2174C17.5384 10.316 17.5109 10.412 17.4657 10.5ZM16.0782 13.1531C16.0335 13.2414 15.9718 13.32 15.8966 13.3843C15.8215 13.4486 15.7343 13.4974 15.6402 13.5279C15.5461 13.5584 15.4469 13.57 15.3483 13.562C15.2497 13.554 15.1536 13.5265 15.0657 13.4813C14.1155 12.9987 13.0646 12.748 11.9989 12.7496C10.9332 12.7513 9.88309 13.0052 8.9344 13.4906C8.83007 13.5448 8.71446 13.5737 8.5969 13.575C8.42539 13.5797 8.25745 13.5254 8.12109 13.4213C7.98474 13.3171 7.88823 13.1694 7.84764 13.0027C7.80706 12.836 7.82487 12.6604 7.8981 12.5052C7.97132 12.35 8.09554 12.2247 8.25003 12.15C9.41146 11.5582 10.6965 11.2496 12 11.2496C13.3036 11.2496 14.5886 11.5582 15.75 12.15C15.9259 12.2402 16.059 12.3962 16.1204 12.5841C16.1818 12.7719 16.1667 12.9764 16.0782 13.1531ZM14.6907 15.8156C14.5986 15.9921 14.4409 16.1254 14.2515 16.1868C14.0621 16.2481 13.8562 16.2327 13.6782 16.1437C13.1569 15.8831 12.5817 15.7481 11.9989 15.7498C11.4161 15.7514 10.8417 15.8895 10.3219 16.1531C10.2155 16.2002 10.1008 16.2257 9.9844 16.2281C9.81712 16.2263 9.65524 16.1687 9.5245 16.0643C9.39376 15.9599 9.30167 15.8148 9.26287 15.6521C9.22408 15.4894 9.2408 15.3183 9.31039 15.1662C9.37997 15.0141 9.49842 14.8896 9.6469 14.8125C10.3784 14.4396 11.1884 14.2467 12.0094 14.25C12.8231 14.2493 13.6257 14.4387 14.3532 14.8031C14.4422 14.847 14.5217 14.9081 14.587 14.9829C14.6523 15.0577 14.7021 15.1447 14.7335 15.2389C14.7649 15.333 14.7772 15.4325 14.7699 15.5315C14.7625 15.6305 14.7356 15.7271 14.6907 15.8156Z" fill="#837E9F"/>
</g>
<defs>
<clipPath id="clip0_102_24">
<rect width="24" height="24" fill="white"/>
</clipPath>
</defs>
</svg>
